HIERARCHY
ROOT Hips
{
	OFFSET 0.00000 0.00000 0.00000
	CHANNELS 6 Xposition Yposition Zposition Zrotation Yrotation Xrotation 
	JOINT LHipJoint
	{
		OFFSET 0 0 0
		CHANNELS 3 Zrotation Yrotation Xrotation
		JOINT LeftUpLeg
		{
			OFFSET 1.37590 -1.78394 0.89329
			CHANNELS 3 Zrotation Yrotation Xrotation
			JOINT LeftLeg
			{
				OFFSET 2.47928 -6.81178 0.00000
				CHANNELS 3 Zrotation Yrotation Xrotation
				JOINT LeftFoot
				{
					OFFSET 2.63345 -7.23535 0.00000
					CHANNELS 3 Zrotation Yrotation Xrotation
					JOINT LeftToeBase
					{
						OFFSET 0.23938 -0.65768 2.27012
						CHANNELS 3 Zrotation Yrotation Xrotation
						End Site
						{
							OFFSET 0.00000 -0.00000 1.18363
						}
					}
				}
			}
		}
	}
	JOINT RHipJoint
	{
		OFFSET 0 0 0
		CHANNELS 3 Zrotation Yrotation Xrotation
		JOINT RightUpLeg
		{
			OFFSET -1.33617 -1.78394 0.89329
			CHANNELS 3 Zrotation Yrotation Xrotation
			JOINT RightLeg
			{
				OFFSET -2.56922 -7.05888 0.00000
				CHANNELS 3 Zrotation Yrotation Xrotation
				JOINT RightFoot
				{
					OFFSET -2.56568 -7.04915 0.00000
					CHANNELS 3 Zrotation Yrotation Xrotation
					JOINT RightToeBase
					{
						OFFSET -0.27533 -0.75646 2.18105
						CHANNELS 3 Zrotation Yrotation Xrotation
						End Site
						{
							OFFSET -0.00000 -0.00000 1.15233
						}
					}
				}
			}
		}
	}
	JOINT LowerBack
	{
		OFFSET 0 0 0
		CHANNELS 3 Zrotation Yrotation Xrotation
		JOINT Spine
		{
			OFFSET 0.06190 2.15152 -0.00935
			CHANNELS 3 Zrotation Yrotation Xrotation
			JOINT Spine1
			{
				OFFSET 0.06334 2.15332 0.00872
				CHANNELS 3 Zrotation Yrotation Xrotation
				JOINT Neck
				{
					OFFSET 0 0 0
					CHANNELS 3 Zrotation Yrotation Xrotation
					JOINT Neck1
					{
						OFFSET -0.04202 1.66908 0.23524
						CHANNELS 3 Zrotation Yrotation Xrotation
						JOINT Head
						{
							OFFSET 0.07510 1.69357 -0.24440
							CHANNELS 3 Zrotation Yrotation Xrotation
							End Site
							{
								OFFSET 0.02556 1.71719 -0.11000
							}
						}
					}
				}
				JOINT LeftShoulder
				{
					OFFSET 0 0 0
					CHANNELS 3 Zrotation Yrotation Xrotation
					JOINT LeftArm
					{
						OFFSET 3.67168 1.26306 -0.41342
						CHANNELS 3 Zrotation Yrotation Xrotation
						JOINT LeftForeArm
						{
							OFFSET 4.68510 -0.00000 -0.00000
							CHANNELS 3 Zrotation Yrotation Xrotation
							JOINT LeftHand
							{
								OFFSET 3.39626 -0.00000 -0.00000
								CHANNELS 3 Zrotation Yrotation Xrotation
								JOINT LeftFingerBase
								{
									OFFSET 0 0 0
									CHANNELS 3 Zrotation Yrotation Xrotation
									JOINT LeftHandIndex1
									{
										OFFSET 0.48608 -0.00000 -0.00000
										CHANNELS 3 Zrotation Yrotation Xrotation
										End Site
										{
											OFFSET 0.39189 -0.00000 -0.00000
										}
									}
								}
								JOINT LThumb
								{
									OFFSET 0 0 0
									CHANNELS 3 Zrotation Yrotation Xrotation
									End Site
									{
										OFFSET 0.39787 -0.00000 0.39787
									}
								}
							}
						}
					}
				}
				JOINT RightShoulder
				{
					OFFSET 0 0 0
					CHANNELS 3 Zrotation Yrotation Xrotation
					JOINT RightArm
					{
						OFFSET -3.04136 1.42992 -0.76390
						CHANNELS 3 Zrotation Yrotation Xrotation
						JOINT RightForeArm
						{
							OFFSET -5.55576 -0.00000 -0.00000
							CHANNELS 3 Zrotation Yrotation Xrotation
							JOINT RightHand
							{
								OFFSET -3.32774 -0.00000 -0.00000
								CHANNELS 3 Zrotation Yrotation Xrotation
								JOINT RightFingerBase
								{
									OFFSET 0 0 0
									CHANNELS 3 Zrotation Yrotation Xrotation
									JOINT RightHandIndex1
									{
										OFFSET -0.50763 -0.00000 -0.00000
										CHANNELS 3 Zrotation Yrotation Xrotation
										End Site
										{
											OFFSET -0.40926 -0.00000 -0.00000
										}
									}
								}
								JOINT RThumb
								{
									OFFSET 0 0 0
									CHANNELS 3 Zrotation Yrotation Xrotation
									End Site
									{
										OFFSET -0.41551 -0.00000 0.41551
									}
								}
							}
						}
					}
				}
			}
		}
	}
}
MOTION
Frames: 12
Frame Time: .0083333
42.7357 17.7972 6.6434 0 0 0 0 0 0 -21 0 0 0 0 0 0 0 0 0 0 0 0 0 0 21 0 0 0 0 0 0 0 0 0 0 0 0 0 0 0 0 0 0 0 0 0 0 -16 0 0 21 0 0 11 0 0 0 -8 0 0 0 0 0 0 0 0 0 0 0 0 0 0 0 0 0 0 0 0 8 0 0 0 0 0 0 0 0 0 0 0 0 0 0 0 0 0
42.7357 17.7972 6.6434 -99.0168 -84.2629 108.1390 0.0000 0.0000 0.0000 -12.1315 -4.6424 -6.2868 0.2565 3.2584 8.9989 0.2503 -2.8560 -8.8955 0.0692 1.6972 4.6696 0.0000 0.0000 0.0000 26.0523 5.6772 -10.6670 -0.7813 -5.6432 15.7525 0.1860 -11.5511 -13.4645 -0.4170 -4.1449 11.4846 3.9952 -0.7948 -4.4745 3.5850 -1.3429 -2.3073 1.3847 -0.7307 0.1317 -5.5135 -4.4268 -17.6165 5.3268 -5.4275 10.5781 2.0241 -2.4159 6.3838 -0.0000 0.0000 0.0000 -91.5851 -0.1419 5.0204 13.0645 -21.3817 -2.4768 -0.0000 -0.0000 30.3296 13.5416 21.0980 4.9549 -7.1250 0.0000 -0.0000 -15.1626 51.0001 -2.2863 -0.0000 0.0000 0.0000 85.8329 4.7486 -13.2726 -10.6003 17.6730 -1.6525 0.0000 0.0000 2.8981 -1.8199 -29.1672 0.8872 7.1250 -0.0000 -0.0000 31.2868 -56.2703 -9.2847
42.7324 17.7936 6.6467 -99.9564 -84.2675 109.2470 0.0000 0.0000 0.0000 -12.1716 -4.7448 -6.4241 0.2564 3.2576 8.9969 0.2530 -2.6908 -8.9524 0.0625 1.6129 4.4369 0.0000 0.0000 0.0000 26.0525 5.9560 -10.4779 -0.7372 -5.4852 15.2979 0.2140 -11.8219 -13.4279 -0.4296 -4.2061 11.6572 4.0654 -0.7469 -4.9387 3.5050 -1.3139 -2.2719 1.2558 -0.7131 0.4238 -7.0803 -4.1615 -18.5416 7.8175 -5.0949 11.7681 3.1189 -2.0897 7.0188 0.0000 -0.0000 0.0000 -91.6324 -0.5035 4.7657 12.9453 -21.2070 -2.4335 -0.0000 -0.0000 30.9760 13.4583 21.2114 4.9486 -7.1250 0.0000 -0.0000 -15.2905 51.0972 -2.3434 0.0000 -0.0000 0.0000 85.8007 5.4609 -12.6689 -10.5116 17.5359 -1.6257 0.0000 0.0000 3.6832 -2.2986 -28.4198 1.0944 7.1250 -0.0000 -0.0000 30.2483 -55.7260 -8.5207
42.7290 17.7945 6.6485 -101.9160 -84.2020 111.2580 0.0000 0.0000 0.0000 -12.1586 -4.7522 -6.4021 0.2537 3.2411 8.9506 0.2588 -2.5177 -9.0678 0.0620 1.6063 4.4187 0.0000 0.0000 0.0000 26.1370 6.3169 -10.1402 -0.6976 -5.3389 14.8777 0.2400 -12.0815 -13.4168 -0.4476 -4.2926 11.9014 4.2176 -0.6154 -5.0924 3.3366 -1.1570 -2.0842 1.0013 -0.6280 0.6974 -6.9202 -4.3007 -19.5124 7.8645 -5.3009 12.1950 3.0763 -2.1520 7.3341 0.0000 -0.0000 0.0000 -91.4687 -1.2581 4.8911 12.7596 -20.9339 -2.3667 -0.0000 -0.0000 31.3166 13.4743 21.3673 4.9892 -7.1250 0.0000 -0.0000 -15.3418 51.2523 -2.4109 0.0000 -0.0000 0.0000 85.9430 6.3203 -11.3470 -10.5966 17.6673 -1.6514 0.0000 0.0000 3.6761 -2.5590 -28.4143 1.2183 7.1250 -0.0000 -0.0000 29.9954 -55.7727 -8.4748
42.7250 17.7960 6.6512 -103.7760 -84.0849 113.1770 0.0000 0.0000 0.0000 -12.1067 -4.7825 -6.3740 0.2508 3.2225 8.8988 0.2654 -2.2486 -9.2102 0.0560 1.5273 4.2009 0.0000 0.0000 0.0000 26.2589 6.5546 -9.8932 -0.6645 -5.2135 14.5185 0.2631 -12.2382 -13.2710 -0.4566 -4.3348 12.0205 4.3629 -0.5808 -4.9157 3.2825 -1.0933 -2.4355 0.8741 -0.6096 0.2338 -6.9684 -4.2526 -19.0920 7.9078 -5.2747 12.4677 3.1070 -2.1455 7.3537 0.0000 -0.0000 0.0000 -91.5203 -0.8956 4.6391 12.6723 -20.8052 -2.3356 -0.0000 -0.0000 31.7342 13.4707 21.0497 4.9174 -7.1250 0.0000 -0.0000 -15.2102 50.9413 -2.2714 0.0000 -0.0000 0.0000 85.9404 6.1172 -9.5463 -10.7194 17.8569 -1.6889 0.0000 0.0000 3.4743 -2.6375 -28.0526 1.2411 7.1250 -0.0000 -0.0000 29.6488 -55.4756 -8.1423
42.7222 17.7992 6.6543 -105.4910 -83.9644 114.9530 0.0000 0.0000 0.0000 -12.0647 -4.8678 -6.3438 0.2490 3.2109 8.8664 0.2704 -1.9796 -9.3327 0.0577 1.5500 4.2635 0.0000 0.0000 0.0000 26.3682 6.8091 -9.6934 -0.6393 -5.1153 14.2376 0.2779 -12.3598 -13.2185 -0.4615 -4.3578 12.0856 4.5497 -0.4648 -5.3960 3.1606 -0.9911 -2.0671 0.6401 -0.5436 0.8774 -6.8081 -4.3707 -19.9664 7.8993 -5.4338 12.6247 3.0507 -2.1932 7.5601 -0.0000 0.0000 0.0000 -91.4506 -1.9447 4.4694 12.4570 -20.4865 -2.2597 -0.0000 -0.0000 32.1737 13.6078 20.7891 4.9107 -7.1250 0.0000 -0.0000 -14.9703 50.7086 -2.1473 -0.0000 0.0000 0.0000 86.0246 7.2445 -8.4082 -10.7802 17.9505 -1.7076 0.0000 0.0000 3.5222 -2.4239 -27.6869 1.1268 7.1250 -0.0000 -0.0000 29.5830 -55.1177 -7.8549
42.7192 17.8030 6.6557 -107.2680 -83.7830 116.7910 0.0000 0.0000 0.0000 -11.9419 -4.9776 -6.2720 0.2460 3.1917 8.8129 0.2793 -1.7011 -9.5344 0.0714 1.7244 4.7445 0.0000 0.0000 0.0000 26.5160 6.9554 -9.5323 -0.6128 -5.0101 13.9374 0.2823 -12.3423 -13.0957 -0.4737 -4.4143 12.2452 4.6877 -0.4051 -5.6053 3.1512 -0.9324 -2.1793 0.5556 -0.5179 0.8772 -6.8965 -4.3297 -19.4060 7.9338 -5.3866 12.4959 3.0870 -2.1859 7.4235 0.0000 0.0000 0.0000 -91.5616 -1.9249 4.2992 12.3777 -20.3686 -2.2320 -0.0000 -0.0000 32.4043 13.7262 21.1615 5.0391 -7.1250 0.0000 -0.0000 -15.0120 51.0922 -2.2971 0.0000 0.0000 0.0000 85.9744 7.3639 -6.7937 -10.9068 18.1452 -1.7468 0.0000 0.0000 3.2225 -2.2036 -27.3989 1.0145 7.1250 -0.0000 -0.0000 29.5832 -54.8262 -7.6370
42.7153 17.8077 6.6584 -109.0850 -83.6643 118.6620 0.0000 0.0000 0.0000 -11.9355 -4.9742 -6.2345 0.2419 3.1651 8.7387 0.2809 -1.4003 -9.6186 0.0654 1.6496 4.5381 0.0000 0.0000 0.0000 26.5665 7.0908 -9.3888 -0.5919 -4.9255 13.6963 0.2840 -12.2863 -12.9494 -0.4951 -4.5111 12.5191 4.7828 -0.3225 -5.8661 3.1035 -0.8475 -2.1584 0.4559 -0.4732 1.0440 -6.9205 -4.3384 -19.3814 7.9793 -5.4064 12.5633 3.1042 -2.1925 7.4452 0.0000 -0.0000 0.0000 -91.6644 -2.1637 4.2701 12.3151 -20.2754 -2.2103 -0.0000 -0.0000 32.5232 13.9059 21.3479 5.1501 -7.1250 0.0000 -0.0000 -14.9177 51.3041 -2.3609 0.0000 -0.0000 0.0000 85.9669 7.7198 -5.1683 -11.0180 18.3158 -1.7816 0.0000 0.0000 3.1381 -2.3200 -26.9565 1.0521 7.1250 -0.0000 -0.0000 29.1585 -54.4640 -7.2451
42.7131 17.8125 6.6593 -110.7210 -83.4879 120.3460 0.0000 0.0000 0.0000 -11.8508 -4.9624 -6.2224 0.2397 3.1507 8.6985 0.2820 -1.1133 -9.7016 0.0642 1.6342 4.4959 0.0000 0.0000 0.0000 26.6759 7.2065 -9.3184 -0.5798 -4.8759 13.5550 0.2804 -12.1658 -12.7800 -0.5003 -4.5347 12.5860 4.9449 -0.2744 -6.4857 3.0750 -0.8469 -2.0135 0.3296 -0.4632 1.5358 -7.0182 -4.2691 -18.8646 8.1091 -5.3229 12.2667 3.1769 -2.1603 7.2615 -0.0000 0.0000 0.0000 -91.7852 -2.4764 4.0300 12.2654 -20.2015 -2.1931 -0.0000 -0.0000 32.6749 14.0063 21.4146 5.2039 -7.1250 0.0000 -0.0000 -14.8492 51.3860 -2.3799 -0.0000 0.0000 0.0000 85.9737 8.1778 -3.3365 -11.1844 18.5703 -1.8342 0.0000 0.0000 2.5597 -2.3885 -27.0418 1.0864 7.1250 -0.0000 -0.0000 29.1537 -54.5510 -7.3081
42.7118 17.8174 6.6618 -112.2690 -83.3573 121.9430 0.0000 0.0000 0.0000 -11.8369 -4.9622 -6.2300 0.2368 3.1319 8.6461 0.2776 -0.6819 -9.7346 0.0549 1.5114 4.1572 0.0000 0.0000 0.0000 26.7044 7.2488 -9.3238 -0.5745 -4.8540 13.4925 0.2653 -11.9660 -12.6899 -0.4922 -4.4982 12.4827 5.0446 -0.1691 -6.6300 3.0254 -0.7259 -1.9317 0.2307 -0.3983 1.7023 -6.9960 -4.3460 -19.3398 8.1222 -5.4234 12.5312 3.1622 -2.1928 7.4359 0.0000 -0.0000 0.0000 -91.9079 -2.9239 3.9463 12.1984 -20.1015 -2.1700 -0.0000 -0.0000 32.7513 13.8969 21.4013 5.1588 -7.1250 0.0000 -0.0000 -14.9492 51.3550 -2.3850 0.0000 -0.0000 0.0000 85.9662 8.6775 -1.9682 -11.3820 18.8714 -1.8976 0.0000 0.0000 2.3013 -1.7776 -26.8009 0.8017 7.1250 -0.0000 -0.0000 29.5612 -54.2281 -7.1820
42.7108 17.8212 6.6628 -113.4800 -83.2148 123.2070 0.0000 0.0000 0.0000 -11.7737 -5.0353 -6.2250 0.2377 3.1378 8.6625 0.2858 -0.5259 -9.9260 0.0541 1.5009 4.1282 0.0000 0.0000 0.0000 26.7613 7.3229 -9.3268 -0.5702 -4.8359 13.4411 0.2558 -11.7881 -12.5340 -0.5048 -4.5545 12.6421 4.3275 -0.0517 -6.1112 3.5866 -0.4970 -2.3014 1.2309 -0.3046 1.0514 -7.4317 -4.5072 -19.5751 7.7170 -5.4618 13.0785 3.0936 -2.2586 7.6569 -0.0000 0.0000 0.0000 -93.0640 -2.7051 3.9804 12.2019 -20.1068 -2.1712 -0.0000 -0.0000 32.9145 14.0096 21.5466 5.2356 -7.1250 0.0000 -0.0000 -14.9023 51.5160 -2.4370 -0.0000 0.0000 0.0000 84.9694 8.3680 -0.3519 -11.7116 19.3708 -2.0056 0.0000 0.0000 1.4407 -1.2382 -26.4459 0.5515 7.1250 -0.0000 -0.0000 29.8204 -53.8215 -6.9449
42.7088 17.8249 6.6637 -115.1210 -83.1330 124.8560 0.0000 0.0000 0.0000 -11.8254 -5.0946 -6.1326 0.2362 3.1279 8.6351 0.2905 -0.3139 -10.0747 0.0612 1.5964 4.3916 0.0000 0.0000 0.0000 26.7214 7.3526 -9.3099 -0.5686 -4.8294 13.4228 0.2368 -11.5654 -12.4919 -0.5197 -4.6205 12.8292 5.1470 0.0103 -6.5107 2.9393 -0.4758 -2.1208 0.1054 -0.2819 1.4468 -6.9645 -4.4142 -19.6954 8.1235 -5.5387 13.0564 3.1424 -2.2333 7.6774 0.0000 -0.0000 0.0000 -92.2274 -3.0518 4.2341 12.2535 -20.1837 -2.1890 -0.0000 -0.0000 32.1487 14.1944 21.4749 5.2904 -7.1250 0.0000 -0.0000 -14.6931 51.4764 -2.3870 0.0000 -0.0000 0.0000 86.0110 8.8744 1.0050 -12.0060 19.8136 -2.1043 0.0000 0.0000 1.2552 -0.8514 -26.4282 0.3790 7.1250 -0.0000 -0.0000 30.1696 -53.7360 -6.9725
